<svg width="448" height="682" viewBox="0 0 448 682" fill="none" xmlns="http://www.w3.org/2000/svg">
<mask id="mask0_1034_183" style="mask-type:alpha" maskUnits="userSpaceOnUse" x="16" y="70" width="416" height="560">
<path d="M16 278C16 163.125 109.125 70 224 70V70C338.875 70 432 163.125 432 278V630H16V278Z" fill="#B69D61" fill-opacity="0.88"/>
</mask>
<g mask="url(#mask0_1034_183)">
<g filter="url(#filter0_d_1034_183)">
<path d="M16 278C16 163.125 109.125 70 224 70V70C338.875 70 432 163.125 432 278V630H16V278Z" fill="#B69D61"/>
</g>
<g filter="url(#filter1_d_1034_183)">
<circle cx="432" cy="647" r="100" fill="#9A566A"/>
</g>
<g filter="url(#filter2_d_1034_183)">
<circle cx="16" cy="380" r="100" fill="#9A566A"/>
</g>
<g filter="url(#filter3_d_1034_183)">
<circle cx="88" cy="594" r="100" fill="#564962"/>
</g>
<g filter="url(#filter4_d_1034_183)">
<circle cx="74" cy="150" r="100" fill="#2A4A64"/>
</g>
<g filter="url(#filter5_d_1034_183)">
<circle cx="402" cy="150" r="100" fill="#564962"/>
</g>
<g filter="url(#filter6_d_1034_183)">
<circle cx="284" cy="480" r="100" fill="#2A4A64"/>
</g>
</g>
<path d="M18.856 655.968L17.056 655.656V654.168H20.68C21.016 654.168 21.536 654.152 22.24 654.12C23.168 654.056 24.008 654.024 24.76 654.024C26.424 654.024 27.736 654.232 28.696 654.648C29.672 655.048 30.36 655.632 30.76 656.4C31.176 657.152 31.384 658.112 31.384 659.28C31.384 661.296 30.752 662.864 29.488 663.984C28.24 665.104 26.504 665.664 24.28 665.664C23.4 665.664 22.768 665.64 22.384 665.592V670.32L25.6 670.56V672H16.96V670.56L18.856 670.32V655.968ZM22.36 664.056C22.728 664.136 23.352 664.176 24.232 664.176C25.304 664.176 26.16 663.808 26.8 663.072C27.456 662.32 27.784 661.08 27.784 659.352C27.784 658.008 27.488 657.032 26.896 656.424C26.32 655.8 25.432 655.488 24.232 655.488C23.784 655.488 23.32 655.52 22.84 655.584C22.616 655.616 22.456 655.632 22.36 655.632V664.056ZM33.4272 670.584L35.0112 670.392V660.936L33.4752 660.504V658.848L37.1952 658.344H37.2672L37.8672 658.824V659.352L37.7952 661.296H37.8672C37.9792 660.976 38.2432 660.584 38.6592 660.12C39.0752 659.64 39.5952 659.224 40.2192 658.872C40.8592 658.504 41.5472 658.32 42.2832 658.32C42.6352 658.32 42.9392 658.368 43.1952 658.464V662.064C42.7152 661.728 42.1312 661.56 41.4432 661.56C40.2752 661.56 39.2592 661.872 38.3952 662.496V670.368L41.1792 670.584V672H33.4272V670.584ZM45.2041 665.352C45.2041 663.848 45.5001 662.568 46.0921 661.512C46.7001 660.456 47.5081 659.664 48.5161 659.136C49.5241 658.592 50.6201 658.32 51.8041 658.32C53.8201 658.32 55.3721 658.944 56.4601 660.192C57.5641 661.424 58.1161 663.104 58.1161 665.232C58.1161 666.752 57.8121 668.048 57.2041 669.12C56.6121 670.176 55.8121 670.968 54.8041 671.496C53.8121 672.008 52.7161 672.264 51.5161 672.264C49.5161 672.264 47.9641 671.648 46.8601 670.416C45.7561 669.168 45.2041 667.48 45.2041 665.352ZM51.7081 670.704C53.5161 670.704 54.4201 668.96 54.4201 665.472C54.4201 663.648 54.2041 662.264 53.7721 661.32C53.3401 660.36 52.6361 659.88 51.6601 659.88C49.8041 659.88 48.8761 661.624 48.8761 665.112C48.8761 666.936 49.1001 668.328 49.5481 669.288C50.0121 670.232 50.7321 670.704 51.7081 670.704ZM65.7938 672.264C64.8018 672.264 63.9138 672.032 63.1298 671.568C62.3458 671.088 61.7218 670.352 61.2578 669.36C60.7938 668.368 60.5618 667.128 60.5618 665.64C60.5618 664.296 60.8338 663.072 61.3778 661.968C61.9378 660.848 62.7538 659.96 63.8258 659.304C64.8978 658.648 66.1858 658.32 67.6898 658.32C68.2978 658.32 68.8738 658.384 69.4178 658.512V654.456L67.0658 654.12V652.8L72.0098 652.32H72.0818L72.7538 652.824V670.536H74.0498V671.904C72.8978 672.144 71.9458 672.264 71.1938 672.264C70.6818 672.264 70.3138 672.176 70.0898 672C69.8818 671.84 69.7778 671.512 69.7778 671.016V670.344C69.3618 670.904 68.7938 671.368 68.0738 671.736C67.3538 672.088 66.5938 672.264 65.7938 672.264ZM67.0418 670.272C67.5698 670.272 68.0338 670.168 68.4338 669.96C68.8498 669.736 69.1778 669.472 69.4178 669.168V660.432C69.3058 660.272 69.0658 660.136 68.6978 660.024C68.3458 659.912 67.9618 659.856 67.5458 659.856C66.5218 659.856 65.6978 660.304 65.0738 661.2C64.4658 662.08 64.1618 663.496 64.1618 665.448C64.1618 667.08 64.4258 668.296 64.9538 669.096C65.4818 669.88 66.1778 670.272 67.0418 670.272ZM87.1052 672.24C86.5772 672.24 86.1932 672.128 85.9532 671.904C85.7132 671.68 85.5932 671.344 85.5932 670.896V670.248C85.1612 670.776 84.5532 671.248 83.7692 671.664C82.9852 672.064 82.2012 672.264 81.4172 672.264C79.8812 672.264 78.7852 671.872 78.1292 671.088C77.4732 670.288 77.1452 668.976 77.1452 667.152V660.384L75.9452 660.048V658.68L80.0252 658.368H80.0492L80.5292 658.704V667.152C80.5292 668.32 80.6732 669.136 80.9612 669.6C81.2492 670.064 81.7852 670.296 82.5692 670.296C83.5132 670.296 84.3932 669.928 85.2092 669.192V660.384L83.6012 660.024V658.68L87.9452 658.368H87.9932L88.5692 658.704V670.512H89.9132L89.8892 671.88C89.8252 671.896 89.5292 671.96 89.0012 672.072C88.4732 672.184 87.8412 672.24 87.1052 672.24ZM91.7774 665.4C91.7774 664.024 92.0494 662.8 92.5934 661.728C93.1534 660.656 93.9454 659.824 94.9694 659.232C96.0094 658.624 97.2174 658.32 98.5934 658.32C99.2334 658.32 99.7854 658.368 100.249 658.464C100.713 658.56 101.233 658.688 101.809 658.848L102.505 659.04L102.361 663.144H100.273L99.6734 660.504C99.5774 660.088 99.1054 659.88 98.2574 659.88C97.3614 659.88 96.6574 660.272 96.1454 661.056C95.6494 661.84 95.3934 663.064 95.3774 664.728C95.3774 666.488 95.6814 667.84 96.2894 668.784C96.8974 669.712 97.7054 670.176 98.7134 670.176C99.9294 670.176 101.049 669.848 102.073 669.192L102.625 670.44C102.209 670.888 101.569 671.304 100.705 671.688C99.8574 672.072 98.9374 672.264 97.9454 672.264C95.8974 672.264 94.3534 671.632 93.3134 670.368C92.2894 669.104 91.7774 667.448 91.7774 665.4ZM109.047 672.216C108.039 672.216 107.295 671.984 106.815 671.52C106.335 671.056 106.095 670.32 106.095 669.312V660.504H104.535V659.256C104.663 659.208 104.895 659.128 105.231 659.016C105.567 658.888 105.823 658.784 105.999 658.704C106.271 658.496 106.503 658.136 106.695 657.624C106.839 657.288 107.103 656.456 107.487 655.128H109.407L109.503 658.656H113.175V660.504H109.527V667.248C109.527 668.144 109.551 668.776 109.599 669.144C109.647 669.512 109.751 669.752 109.911 669.864C110.071 669.96 110.351 670.008 110.751 670.008C111.151 670.008 111.567 669.968 111.999 669.888C112.431 669.792 112.791 669.68 113.079 669.552L113.535 670.896C113.087 671.232 112.431 671.536 111.567 671.808C110.703 672.08 109.863 672.216 109.047 672.216Z" fill="#564962"/>
<path d="M366.195 672.192C363.763 672.192 361.955 671.584 360.771 670.368C359.587 669.152 358.995 667.24 358.995 664.632V655.968L357.411 655.656V654.168H364.659V655.656L362.619 655.992V664.944C362.619 668.752 363.971 670.656 366.675 670.656C368.003 670.656 368.987 670.168 369.627 669.192C370.267 668.2 370.587 666.816 370.587 665.04V655.992L368.523 655.656V654.168H374.523V655.656L372.891 655.968V664.848C372.891 667.344 372.283 669.192 371.067 670.392C369.867 671.592 368.243 672.192 366.195 672.192ZM378.415 655.968L376.375 655.656V654.168H384.055V655.656L381.943 655.968V670.32L384.055 670.584V672H376.375V670.56L378.415 670.32V655.968ZM388.858 676.248H386.434L392.722 653.256H395.146L388.858 676.248ZM405.674 672.192C403.242 672.192 401.434 671.584 400.25 670.368C399.066 669.152 398.474 667.24 398.474 664.632V655.968L396.89 655.656V654.168H404.138V655.656L402.098 655.992V664.944C402.098 668.752 403.45 670.656 406.154 670.656C407.482 670.656 408.466 670.168 409.106 669.192C409.746 668.2 410.066 666.816 410.066 665.04V655.992L408.002 655.656V654.168H414.002V655.656L412.37 655.968V664.848C412.37 667.344 411.762 669.192 410.546 670.392C409.346 671.592 407.722 672.192 405.674 672.192ZM421.662 663.288L416.766 655.992L415.11 655.656V654.168H422.958V655.656L420.918 655.992L424.206 661.44L427.59 655.968L425.526 655.656V654.168H431.694V655.656L429.75 655.992L425.094 662.52L430.326 670.32L432.006 670.56V672H424.182V670.56L426.198 670.32L422.598 664.44L419.142 670.32L421.446 670.56V672H414.894V670.56L416.91 670.32L421.662 663.288Z" fill="#9A566A"/>
<path d="M156.74 655.968L154.94 655.656V654.168H158.444C158.972 654.168 159.684 654.136 160.58 654.072C160.788 654.056 161.1 654.04 161.516 654.024C161.948 654.008 162.332 654 162.668 654C165.612 654 167.812 654.736 169.268 656.208C170.74 657.68 171.476 659.768 171.476 662.472C171.476 664.36 171.108 666.04 170.372 667.512C169.652 668.984 168.62 670.136 167.276 670.968C165.932 671.784 164.364 672.192 162.572 672.192C162.108 672.192 161.38 672.16 160.388 672.096C159.46 672.032 158.828 672 158.492 672H154.844V670.56L156.74 670.32V655.968ZM160.22 670.392C160.764 670.536 161.524 670.608 162.5 670.608C164.1 670.576 165.356 669.936 166.268 668.688C167.18 667.424 167.636 665.536 167.636 663.024C167.636 660.64 167.188 658.8 166.292 657.504C165.396 656.192 164.004 655.536 162.116 655.536C161.716 655.536 161.332 655.56 160.964 655.608C160.612 655.656 160.364 655.688 160.22 655.704V670.392ZM179.774 672.264C177.662 672.264 176.086 671.648 175.046 670.416C174.022 669.168 173.51 667.472 173.51 665.328C173.51 663.888 173.774 662.64 174.302 661.584C174.846 660.528 175.606 659.72 176.582 659.16C177.558 658.6 178.686 658.32 179.966 658.32C181.566 658.32 182.798 658.744 183.662 659.592C184.526 660.424 184.974 661.616 185.006 663.168C185.006 664.224 184.942 665.008 184.814 665.52H177.014C177.078 666.976 177.422 668.112 178.046 668.928C178.67 669.728 179.558 670.128 180.71 670.128C181.334 670.128 181.974 670.024 182.63 669.816C183.302 669.608 183.83 669.36 184.214 669.072L184.814 670.392C184.382 670.856 183.678 671.288 182.702 671.688C181.742 672.072 180.766 672.264 179.774 672.264ZM181.646 664.08C181.678 663.632 181.694 663.288 181.694 663.048C181.694 660.92 180.982 659.856 179.558 659.856C178.774 659.856 178.166 660.168 177.734 660.792C177.302 661.416 177.062 662.512 177.014 664.08H181.646ZM186.177 658.656H192.513V660.048L190.929 660.36L193.113 666.888L193.881 669.432L194.529 666.96L196.665 660.36L195.153 660.048V658.656H200.433V660.048L199.185 660.36L194.721 672.192H191.937L187.161 660.36L186.177 660.048V658.656ZM207.64 672.264C205.528 672.264 203.952 671.648 202.912 670.416C201.888 669.168 201.376 667.472 201.376 665.328C201.376 663.888 201.64 662.64 202.168 661.584C202.712 660.528 203.472 659.72 204.448 659.16C205.424 658.6 206.552 658.32 207.832 658.32C209.432 658.32 210.664 658.744 211.528 659.592C212.392 660.424 212.84 661.616 212.872 663.168C212.872 664.224 212.808 665.008 212.68 665.52H204.88C204.944 666.976 205.288 668.112 205.912 668.928C206.536 669.728 207.424 670.128 208.576 670.128C209.2 670.128 209.84 670.024 210.496 669.816C211.168 669.608 211.696 669.36 212.08 669.072L212.68 670.392C212.248 670.856 211.544 671.288 210.568 671.688C209.608 672.072 208.632 672.264 207.64 672.264ZM209.512 664.08C209.544 663.632 209.56 663.288 209.56 663.048C209.56 660.92 208.848 659.856 207.424 659.856C206.64 659.856 206.032 660.168 205.6 660.792C205.168 661.416 204.928 662.512 204.88 664.08H209.512ZM216.659 654.456L214.883 654.144V652.848L219.323 652.32H219.371L220.019 652.776V670.368L221.771 670.56V672H214.979V670.56L216.659 670.344V654.456ZM223.904 665.352C223.904 663.848 224.2 662.568 224.792 661.512C225.4 660.456 226.208 659.664 227.216 659.136C228.224 658.592 229.32 658.32 230.504 658.32C232.52 658.32 234.072 658.944 235.16 660.192C236.264 661.424 236.816 663.104 236.816 665.232C236.816 666.752 236.512 668.048 235.904 669.12C235.312 670.176 234.512 670.968 233.504 671.496C232.512 672.008 231.416 672.264 230.216 672.264C228.216 672.264 226.664 671.648 225.56 670.416C224.456 669.168 223.904 667.48 223.904 665.352ZM230.408 670.704C232.216 670.704 233.12 668.96 233.12 665.472C233.12 663.648 232.904 662.264 232.472 661.32C232.04 660.36 231.336 659.88 230.36 659.88C228.504 659.88 227.576 661.624 227.576 665.112C227.576 666.936 227.8 668.328 228.248 669.288C228.712 670.232 229.432 670.704 230.408 670.704ZM252.749 664.896C252.749 666.24 252.469 667.472 251.909 668.592C251.365 669.712 250.557 670.608 249.485 671.28C248.429 671.936 247.165 672.264 245.693 672.264C245.373 672.264 245.037 672.232 244.685 672.168C244.349 672.12 244.077 672.056 243.869 671.976L243.941 673.968V676.152L246.173 676.44V677.808H239.045V676.44L240.605 676.152V660.936L239.045 660.504V658.848L243.005 658.344H243.053L243.653 658.824V660.168C244.053 659.672 244.597 659.24 245.285 658.872C245.973 658.504 246.725 658.32 247.541 658.32C249.061 658.32 250.309 658.864 251.285 659.952C252.261 661.024 252.749 662.672 252.749 664.896ZM246.293 660.312C245.813 660.312 245.357 660.416 244.925 660.624C244.493 660.832 244.165 661.064 243.941 661.32V670.224C244.053 670.384 244.277 670.52 244.613 670.632C244.965 670.744 245.349 670.8 245.765 670.8C246.805 670.8 247.629 670.352 248.237 669.456C248.861 668.544 249.173 667.12 249.173 665.184C249.173 663.552 248.909 662.336 248.381 661.536C247.853 660.72 247.157 660.312 246.293 660.312ZM255.192 670.56L256.536 670.344V660.936L255 660.504V658.848L258.984 658.344L259.272 658.536L259.632 659.328V660.336C260.16 659.824 260.912 659.376 261.888 658.992C262.88 658.592 263.736 658.392 264.456 658.392C265.32 658.392 266.016 658.536 266.544 658.824C267.088 659.112 267.496 659.56 267.768 660.168C268.296 659.688 268.992 659.272 269.856 658.92C270.72 658.568 271.568 658.392 272.4 658.392C273.824 658.392 274.832 658.808 275.424 659.64C276.016 660.472 276.312 661.832 276.312 663.72V670.344L277.872 670.56V672H271.656V670.56L272.904 670.344V663.816C272.904 662.568 272.752 661.696 272.448 661.2C272.16 660.688 271.6 660.432 270.768 660.432C270.32 660.432 269.856 660.536 269.376 660.744C268.912 660.936 268.496 661.176 268.128 661.464C268.24 662.072 268.296 662.832 268.296 663.744V670.344L269.784 670.56V672H263.52V670.56L264.84 670.344V663.744C264.84 662.912 264.784 662.264 264.672 661.8C264.576 661.32 264.384 660.976 264.096 660.768C263.808 660.544 263.392 660.432 262.848 660.432C262.336 660.432 261.824 660.552 261.312 660.792C260.816 661.016 260.368 661.288 259.968 661.608V670.344L261.384 670.56V672H255.192V670.56ZM286.024 672.264C283.912 672.264 282.336 671.648 281.296 670.416C280.272 669.168 279.76 667.472 279.76 665.328C279.76 663.888 280.024 662.64 280.552 661.584C281.096 660.528 281.856 659.72 282.832 659.16C283.808 658.6 284.936 658.32 286.216 658.32C287.816 658.32 289.048 658.744 289.912 659.592C290.776 660.424 291.224 661.616 291.256 663.168C291.256 664.224 291.192 665.008 291.064 665.52H283.264C283.328 666.976 283.672 668.112 284.296 668.928C284.92 669.728 285.808 670.128 286.96 670.128C287.584 670.128 288.224 670.024 288.88 669.816C289.552 669.608 290.08 669.36 290.464 669.072L291.064 670.392C290.632 670.856 289.928 671.288 288.952 671.688C287.992 672.072 287.016 672.264 286.024 672.264ZM287.896 664.08C287.928 663.632 287.944 663.288 287.944 663.048C287.944 660.92 287.232 659.856 285.808 659.856C285.024 659.856 284.416 660.168 283.984 660.792C283.552 661.416 283.312 662.512 283.264 664.08H287.896ZM294.996 660.936L293.46 660.504V658.848L297.444 658.344H297.516L298.116 658.824V659.76L298.092 660.336C298.652 659.808 299.38 659.352 300.276 658.968C301.172 658.584 302.076 658.392 302.988 658.392C303.964 658.392 304.724 658.576 305.268 658.944C305.828 659.296 306.228 659.856 306.468 660.624C306.708 661.392 306.828 662.432 306.828 663.744V670.368L308.292 670.56V672H302.1V670.56L303.396 670.368V663.744C303.396 662.912 303.34 662.264 303.228 661.8C303.116 661.32 302.908 660.976 302.604 660.768C302.316 660.544 301.9 660.432 301.356 660.432C300.444 660.432 299.468 660.824 298.428 661.608V670.344L299.868 670.56V672H293.604V670.56L294.996 670.344V660.936ZM314.5 672.216C313.492 672.216 312.748 671.984 312.268 671.52C311.788 671.056 311.548 670.32 311.548 669.312V660.504H309.988V659.256C310.116 659.208 310.348 659.128 310.684 659.016C311.02 658.888 311.276 658.784 311.452 658.704C311.724 658.496 311.956 658.136 312.148 657.624C312.292 657.288 312.556 656.456 312.94 655.128H314.86L314.956 658.656H318.628V660.504H314.98V667.248C314.98 668.144 315.004 668.776 315.052 669.144C315.1 669.512 315.204 669.752 315.364 669.864C315.524 669.96 315.804 670.008 316.204 670.008C316.604 670.008 317.02 669.968 317.452 669.888C317.884 669.792 318.244 669.68 318.532 669.552L318.988 670.896C318.54 671.232 317.884 671.536 317.02 671.808C316.156 672.08 315.316 672.216 314.5 672.216Z" fill="#2A4A64"/>
<path d="M246.462 74.6L279.294 92.744L268.062 112.328L234.654 92.744L234.942 129.896H213.054L213.342 93.032L180.222 112.328L168.702 92.744L201.822 74.6L168.702 56.456L180.222 36.584L213.342 56.168L213.054 19.304H234.942L234.654 56.456L268.062 36.584L279.294 56.456L246.462 74.6Z" fill="#2B2431"/>
<defs>
<filter id="filter0_d_1034_183" x="0" y="55" width="448" height="592" filterUnits="userSpaceOnUse" color-interpolation-filters="sRGB">
<feFlood flood-opacity="0" result="BackgroundImageFix"/>
<feColorMatrix in="SourceAlpha" type="matrix" values="0 0 0 0 0 0 0 0 0 0 0 0 0 0 0 0 0 0 127 0" result="hardAlpha"/>
<feOffset dy="1"/>
<feGaussianBlur stdDeviation="8"/>
<feColorMatrix type="matrix" values="0 0 0 0 0.254902 0 0 0 0 0.215686 0 0 0 0 0.290196 0 0 0 0.16 0"/>
<feBlend mode="normal" in2="BackgroundImageFix" result="effect1_dropShadow_1034_183"/>
<feBlend mode="normal" in="SourceGraphic" in2="effect1_dropShadow_1034_183" result="shape"/>
</filter>
<filter id="filter1_d_1034_183" x="316" y="532" width="232" height="232" filterUnits="userSpaceOnUse" color-interpolation-filters="sRGB">
<feFlood flood-opacity="0" result="BackgroundImageFix"/>
<feColorMatrix in="SourceAlpha" type="matrix" values="0 0 0 0 0 0 0 0 0 0 0 0 0 0 0 0 0 0 127 0" result="hardAlpha"/>
<feOffset dy="1"/>
<feGaussianBlur stdDeviation="8"/>
<feColorMatrix type="matrix" values="0 0 0 0 0.254902 0 0 0 0 0.215686 0 0 0 0 0.290196 0 0 0 0.16 0"/>
<feBlend mode="normal" in2="BackgroundImageFix" result="effect1_dropShadow_1034_183"/>
<feBlend mode="normal" in="SourceGraphic" in2="effect1_dropShadow_1034_183" result="shape"/>
</filter>
<filter id="filter2_d_1034_183" x="-100" y="265" width="232" height="232" filterUnits="userSpaceOnUse" color-interpolation-filters="sRGB">
<feFlood flood-opacity="0" result="BackgroundImageFix"/>
<feColorMatrix in="SourceAlpha" type="matrix" values="0 0 0 0 0 0 0 0 0 0 0 0 0 0 0 0 0 0 127 0" result="hardAlpha"/>
<feOffset dy="1"/>
<feGaussianBlur stdDeviation="8"/>
<feColorMatrix type="matrix" values="0 0 0 0 0.254902 0 0 0 0 0.215686 0 0 0 0 0.290196 0 0 0 0.16 0"/>
<feBlend mode="normal" in2="BackgroundImageFix" result="effect1_dropShadow_1034_183"/>
<feBlend mode="normal" in="SourceGraphic" in2="effect1_dropShadow_1034_183" result="shape"/>
</filter>
<filter id="filter3_d_1034_183" x="-28" y="479" width="232" height="232" filterUnits="userSpaceOnUse" color-interpolation-filters="sRGB">
<feFlood flood-opacity="0" result="BackgroundImageFix"/>
<feColorMatrix in="SourceAlpha" type="matrix" values="0 0 0 0 0 0 0 0 0 0 0 0 0 0 0 0 0 0 127 0" result="hardAlpha"/>
<feOffset dy="1"/>
<feGaussianBlur stdDeviation="8"/>
<feColorMatrix type="matrix" values="0 0 0 0 0.254902 0 0 0 0 0.215686 0 0 0 0 0.290196 0 0 0 0.16 0"/>
<feBlend mode="normal" in2="BackgroundImageFix" result="effect1_dropShadow_1034_183"/>
<feBlend mode="normal" in="SourceGraphic" in2="effect1_dropShadow_1034_183" result="shape"/>
</filter>
<filter id="filter4_d_1034_183" x="-42" y="35" width="232" height="232" filterUnits="userSpaceOnUse" color-interpolation-filters="sRGB">
<feFlood flood-opacity="0" result="BackgroundImageFix"/>
<feColorMatrix in="SourceAlpha" type="matrix" values="0 0 0 0 0 0 0 0 0 0 0 0 0 0 0 0 0 0 127 0" result="hardAlpha"/>
<feOffset dy="1"/>
<feGaussianBlur stdDeviation="8"/>
<feColorMatrix type="matrix" values="0 0 0 0 0.254902 0 0 0 0 0.215686 0 0 0 0 0.290196 0 0 0 0.16 0"/>
<feBlend mode="normal" in2="BackgroundImageFix" result="effect1_dropShadow_1034_183"/>
<feBlend mode="normal" in="SourceGraphic" in2="effect1_dropShadow_1034_183" result="shape"/>
</filter>
<filter id="filter5_d_1034_183" x="286" y="35" width="232" height="232" filterUnits="userSpaceOnUse" color-interpolation-filters="sRGB">
<feFlood flood-opacity="0" result="BackgroundImageFix"/>
<feColorMatrix in="SourceAlpha" type="matrix" values="0 0 0 0 0 0 0 0 0 0 0 0 0 0 0 0 0 0 127 0" result="hardAlpha"/>
<feOffset dy="1"/>
<feGaussianBlur stdDeviation="8"/>
<feColorMatrix type="matrix" values="0 0 0 0 0.254902 0 0 0 0 0.215686 0 0 0 0 0.290196 0 0 0 0.16 0"/>
<feBlend mode="normal" in2="BackgroundImageFix" result="effect1_dropShadow_1034_183"/>
<feBlend mode="normal" in="SourceGraphic" in2="effect1_dropShadow_1034_183" result="shape"/>
</filter>
<filter id="filter6_d_1034_183" x="168" y="365" width="232" height="232" filterUnits="userSpaceOnUse" color-interpolation-filters="sRGB">
<feFlood flood-opacity="0" result="BackgroundImageFix"/>
<feColorMatrix in="SourceAlpha" type="matrix" values="0 0 0 0 0 0 0 0 0 0 0 0 0 0 0 0 0 0 127 0" result="hardAlpha"/>
<feOffset dy="1"/>
<feGaussianBlur stdDeviation="8"/>
<feColorMatrix type="matrix" values="0 0 0 0 0.254902 0 0 0 0 0.215686 0 0 0 0 0.290196 0 0 0 0.16 0"/>
<feBlend mode="normal" in2="BackgroundImageFix" result="effect1_dropShadow_1034_183"/>
<feBlend mode="normal" in="SourceGraphic" in2="effect1_dropShadow_1034_183" result="shape"/>
</filter>
</defs>
</svg>
